<svg xmlns="http://www.w3.org/2000/svg" aria-hidden="true" style="position:absolute;width:0;height:0;overflow:hidden">
  <defs>
    <symbol id="icon-LinkedIn" viewBox="0 0 32 32">
      <path d="M6.715 4.864c-1.06 0-1.92.86-1.92 1.92v19.2c0 1.06.86 1.92 1.92 1.92h19.2c1.06 0 1.92-.86 1.92-1.92v-19.2c0-1.06-.86-1.92-1.92-1.92h-19.2zm5.147 5.124c.007 1.224-.909 1.978-1.996 1.973-1.024-.005-1.917-.821-1.912-1.971a1.911 1.911 0 0 1 1.971-1.926c1.127.025 1.944.851 1.937 1.924zm4.811 3.532h-3.227v10.957h3.409v-.256l-.001-1.459c-.001-1.298-.002-2.597.004-3.894.002-.315.016-.643.097-.943.304-1.123 1.314-1.849 2.441-1.67.724.113 1.202.533 1.404 1.215.124.427.18.886.185 1.33.015 1.341.013 2.682.011 4.023l-.002 1.42v.232h3.42v-.263l-.001-1.735c-.001-1.446-.001-2.892.002-4.338a7.692 7.692 0 0 0-.229-1.93c-.239-.94-.734-1.717-1.539-2.279-.571-.4-1.197-.657-1.897-.686l-.241-.012c-.358-.019-.722-.039-1.064.03-.979.196-1.84.644-2.489 1.434-.076.091-.149.183-.26.32l-.025.031v-1.528zM8.227 24.48h3.393V13.527H8.227V24.48z"/>
    </symbol>
    <symbol id="icon-Youtube" viewBox="0 0 32 32">
      <path d="M28.594 9.934a3.199 3.199 0 0 0-2.255-2.261c-2.004-.55-10.024-.559-10.024-.559s-8.018-.009-10.024.517A3.272 3.272 0 0 0 4.03 9.906c-.529 2.004-.534 6.162-.534 6.162s-.005 4.178.52 6.162a3.204 3.204 0 0 0 2.257 2.259c2.025.55 10.022.559 10.022.559s8.019.009 10.024-.516a3.221 3.221 0 0 0 2.262-2.257c.53-2.003.534-6.159.534-6.159s.026-4.179-.521-6.184zM13.75 19.92l.006-7.68 6.665 3.846-6.671 3.834z"/>
    </symbol>
    <symbol id="icon-Instagram" viewBox="0 0 32 32">
      <path d="M21.435 4.864h-10.24a6.4 6.4 0 0 0-6.4 6.4v10.24a6.4 6.4 0 0 0 6.4 6.4h10.24a6.4 6.4 0 0 0 6.4-6.4v-10.24a6.4 6.4 0 0 0-6.4-6.4zm4.16 16.64a4.172 4.172 0 0 1-4.16 4.16h-10.24a4.172 4.172 0 0 1-4.16-4.16v-10.24a4.172 4.172 0 0 1 4.16-4.16h10.24a4.172 4.172 0 0 1 4.16 4.16v10.24zm-3.2-9.92a1.28 1.28 0 1 0 0-2.56 1.28 1.28 0 0 0 0 2.56zm-6.08-.96a5.76 5.76 0 1 0 5.76 5.76 5.749 5.749 0 0 0-5.76-5.76zm-3.52 5.76a3.52 3.52 0 1 0 7.04 0 3.52 3.52 0 0 0-7.04 0z"/>
    </symbol>
    <symbol id="icon-star" viewBox="0 0 32 32">
      <path d="M14.959 2.16c.524-1.244 2.308-1.244 2.832 0l3.091 7.343c.221.524.72.883 1.293.928l8.024.636c1.36.108 1.911 1.784.875 2.66l-6.114 5.174c-.437.37-.628.95-.494 1.502l1.868 7.736c.316 1.311-1.127 2.347-2.291 1.644l-6.87-4.146a1.55 1.55 0 0 0-1.599 0l-6.87 4.146c-1.164.702-2.607-.334-2.291-1.644l1.868-7.736a1.505 1.505 0 0 0-.494-1.502l-6.114-5.174c-1.036-.877-.485-2.553.875-2.66l8.024-.636a1.532 1.532 0 0 0 1.293-.928l3.092-7.343z"/>
    </symbol>
  </defs>
</svg>
