<svg xmlns="http://www.w3.org/2000/svg" aria-hidden="true" style="position:absolute;width:0;height:0;overflow:hidden">
  <defs>
    <symbol id="icon-logo" viewBox="0 0 86 32">
      <path d="M14.083.129c-.168 0-.346 0-.512.02-1.935.161-3.712.983-4.978 2.48-1.378 1.629-1.711 3.346-1.695 5.42l-3.686-.006c-.165 0-.336-.005-.509-.01-.481-.013-.98-.027-1.431.055a1.28 1.28 0 0 0-.7.381c-.335.348-.343.788-.321 1.239.034.71.095 1.422.156 2.133.033.387.066.773.095 1.159l.612 7.905.298 3.817c.015.188.026.379.038.57.042.683.085 1.376.265 2.03a6.163 6.163 0 0 0 1.782 2.89 6.135 6.135 0 0 0 2.623 1.406c.826.199 1.786.177 2.688.156.268-.006.532-.013.785-.013l9.295.001c.237 0 .48.006.727.012.8.019 1.635.039 2.383-.136a6.24 6.24 0 0 0 2.885-1.584c.715-.709 1.286-1.656 1.536-2.634.191-.748.239-1.569.285-2.366.015-.257.03-.511.049-.759l.407-5.235.507-6.428c.025-.318.056-.638.088-.96.069-.697.138-1.399.137-2.088-.001-.424-.09-.819-.394-1.134-.209-.217-.55-.323-.84-.37-.433-.071-.908-.058-1.368-.046-.17.005-.338.009-.5.009-1.159-.002-2.319.002-3.478.012l-.05.001c.027-2.221-.467-4.127-2.064-5.752A7.116 7.116 0 0 0 14.106.129h-.024zm7.025 12.67.063.004.005.012a.685.685 0 0 1 .009.023l.003.006c.011.026.014.031.013.073-.02 2.724-.749 6.231-2.682 8.225-1.79 1.847-4.57 2.754-7.105 2.804 1.181-2.221 3.078-4.327 5.036-5.891.303-.242.62-.46.937-.679.204-.141.408-.282.609-.429.195-.143.457-.337.485-.597.025-.24-.102-.426-.253-.598-.21-.122-.365-.173-.605-.102-.341.1-.685.353-.995.58-.082.06-.162.119-.239.173a20.844 20.844 0 0 0-6.107 6.765c-.051-2.179.445-4.004 1.781-5.756 2.005-2.63 5.843-4.175 9.046-4.612zM1.626 9.408h24.899a68.436 68.436 0 0 0-.203 2.53c-.032.471-.064.941-.101 1.41l-.67 8.401-.251 3.096-.032.405c-.04.534-.081 1.073-.184 1.596-.106.537-.311 1.003-.59 1.471a5.15 5.15 0 0 1-.349.47c-.722.863-1.907 1.505-3.032 1.59-.613.046-1.243.035-1.868.023-.27-.005-.54-.01-.806-.01H9.163c-.198 0-.4.004-.603.008-.623.013-1.262.026-1.861-.077a4.44 4.44 0 0 1-2.126-1.002 4.65 4.65 0 0 1-1.492-2.348c-.168-.608-.21-1.255-.251-1.89-.01-.16-.021-.319-.033-.476l-.244-3.15-.927-12.047zm20.035 1.932-.019.002c-3.78.437-8.082 1.992-10.526 5.053-1.57 1.968-2.428 4.527-2.145 7.048.062.553.188 1.082.368 1.609l-.074.186c-.31.78-1.031 2.592-.78 3.128.073.155.22.259.38.31.066.021.133.033.201.041.212-.035.407-.079.535-.268.137-.204.277-.693.397-1.112.057-.199.11-.383.155-.512.155-.441.332-.875.508-1.308l.002-.005.062-.152c3.117.009 6.446-.966 8.7-3.191 2.522-2.488 3.157-6.501 3.162-9.897 0-.268-.018-.585-.214-.79-.12-.126-.302-.164-.47-.16-.081.002-.162.01-.243.019zM13.78 1.491c.121-.007.242-.014.363-.013 1.48.01 2.963.673 4.003 1.716 1.416 1.421 1.706 2.928 1.709 4.856l-11.528.005c-.047-1.657.22-3.171 1.308-4.48 1.045-1.257 2.535-1.94 4.145-2.083z"/>
      <path d="m21.17 12.803-.062-.004c-3.203.436-7.041 1.982-9.046 4.612-1.336 1.752-1.832 3.577-1.781 5.756a20.844 20.844 0 0 1 6.107-6.765c.077-.054.157-.112.239-.173.31-.228.654-.48.995-.58.24-.071.394-.02.605.102.15.171.278.358.253.598-.028.261-.29.454-.485.597-.201.147-.405.288-.609.429-.317.219-.634.437-.937.679-1.957 1.564-3.855 3.67-5.036 5.891 2.535-.05 5.315-.957 7.105-2.804 1.933-1.995 2.662-5.502 2.682-8.225.001-.042-.002-.047-.013-.073l-.01-.023-.007-.017zm.472-1.462.019-.002c.081-.009.162-.017.243-.019.168-.004.35.034.47.16.196.205.214.522.214.79-.005 3.396-.64 7.408-3.162 9.897-2.255 2.225-5.584 3.2-8.7 3.191l-.062.152-.002.005c-.176.433-.352.867-.508 1.308-.045.129-.098.312-.155.512-.12.419-.26.908-.397 1.112-.127.189-.323.233-.535.268a1.054 1.054 0 0 1-.201-.041.614.614 0 0 1-.38-.31c-.251-.536.47-2.348.78-3.128l.074-.186a7.451 7.451 0 0 1-.368-1.609c-.283-2.52.575-5.08 2.145-7.047 2.443-3.062 6.746-4.616 10.526-5.053z"/>
      <path d="m21.661 11.339-.018.002c-3.78.437-8.082 1.992-10.526 5.053-1.57 1.968-2.428 4.527-2.145 7.047.062.553.188 1.082.368 1.609l-.074.186c-.31.78-1.031 2.592-.78 3.128.073.155.22.259.38.31.066.021.133.033.201.041.212-.035.407-.079.535-.268.137-.204.277-.693.397-1.111.057-.2.11-.383.155-.512.155-.441.332-.875.508-1.308l.002-.005.062-.152c3.117.009 6.446-.966 8.7-3.191 2.522-2.488 3.157-6.501 3.162-9.897 0-.268-.018-.585-.214-.79-.12-.126-.302-.164-.47-.16-.081.002-.162.01-.243.019zm-.553 1.46.062.004a.685.685 0 0 1 .017.04c.011.026.014.031.013.073-.02 2.724-.749 6.231-2.682 8.225-1.79 1.847-4.57 2.754-7.105 2.804 1.181-2.221 3.078-4.327 5.036-5.891.303-.242.62-.46.937-.679.204-.141.408-.282.609-.429.195-.143.457-.337.485-.597.025-.24-.102-.426-.253-.598-.21-.122-.365-.173-.605-.102-.341.1-.685.353-.995.58-.082.06-.162.119-.239.173a20.844 20.844 0 0 0-6.107 6.765c-.051-2.179.445-4.004 1.781-5.756 2.005-2.63 5.843-4.175 9.046-4.612zM70.327 20.57a4.851 4.851 0 1 0-9.697.345 4.851 4.851 0 0 0 9.697-.346zm-4.849-3.222c.781.032 1.414.219 2.009.747.709.628 1.105 1.535 1.157 2.474s-.244 1.894-.884 2.594c-.585.64-1.314.927-2.169.97-.78-.008-1.424-.13-2.039-.642-.719-.598-1.125-1.483-1.202-2.407-.079-.961.172-1.954.81-2.69.632-.73 1.379-.982 2.318-1.046zM56.846 20.168a4.848 4.848 0 1 0-9.628 1.154 4.848 4.848 0 0 0 9.628-1.154zm-5.244-2.78c.776-.063 1.48.018 2.136.47.736.506 1.199 1.289 1.352 2.162.174.992.011 2.053-.586 2.88-.523.724-1.176 1.083-2.045 1.222-.795.041-1.496-.008-2.166-.481a3.28 3.28 0 0 1-1.349-2.158c-.162-.961.032-2.068.606-2.867.504-.703 1.209-1.092 2.052-1.227zM80.496 15.887a4.58 4.58 0 0 0-3.16 1.71c-.876 1.106-1.176 2.509-1.004 3.896a4.593 4.593 0 0 0 1.731 3.086c1.144.889 2.595 1.115 4.009.922.818-.112 2.048-.504 2.571-1.185a.885.885 0 0 0 .187-.666.641.641 0 0 0-.238-.435c-.16-.119-.374-.134-.564-.097-.264.052-.502.215-.727.37a5.867 5.867 0 0 1-.141.096c-.987.513-2.082.754-3.169.402a3.023 3.023 0 0 1-1.77-1.54c-.188-.373-.281-.77-.364-1.177h4.66c.194 0 .402.007.616.014.552.018 1.144.037 1.632-.051a.73.73 0 0 0 .373-.198c.229-.223.27-.539.263-.844-.026-1.168-.574-2.319-1.424-3.109-.981-.912-2.163-1.255-3.482-1.196zm.144 1.459a2.894 2.894 0 0 1 2.003.508c.697.495 1.063 1.198 1.209 2.026-.591.007-1.182.006-1.773.004-.296-.001-.591-.002-.887-.001l-3.278.004c.15-.504.324-.962.647-1.385.52-.68 1.239-1.045 2.078-1.156z"/>
      <path d="M54.541 12.421c1.749-.041 3.508-.003 5.258-.006.997-.002 2.27-.083 3.238.017.156.016.28.06.398.164a.84.84 0 0 1 .287.594c.005.203-.12.436-.266.573a.715.715 0 0 1-.393.169c-.403.065-.848.027-1.256.027l-2.172-.004-.001 8.06c.003.679.089 2.161-.013 2.738a1.001 1.001 0 0 1-.223.501.707.707 0 0 1-.519.229c-.209.005-.412-.041-.563-.193-.177-.177-.242-.439-.264-.681-.04-.447-.003-.921.002-1.37.008-.665.002-1.33.001-1.995l.005-7.29c-.722.003-3.223.118-3.734-.114a.66.66 0 0 1-.372-.41.757.757 0 0 1 .065-.618c.122-.222.286-.318.521-.39zM43.099 15.893a6.003 6.003 0 0 1 1.916.174c.666.178 1.685.571 2.029 1.203.095.174.144.382.077.575-.068.196-.255.346-.443.423-.548.225-1.234-.53-1.749-.724-.838-.316-1.846-.299-2.662.082-.749.35-1.288 1.012-1.567 1.782-.324.893-.351 2.058.06 2.928.381.807 1.082 1.37 1.914 1.664.952.337 1.943.157 2.833-.269.276-.149.526-.348.84-.413a.58.58 0 0 1 .461.08c.17.118.308.352.331.558a.706.706 0 0 1-.174.52c-.52.645-1.678.969-2.467 1.066-1.368.168-2.793-.106-3.888-.979a4.776 4.776 0 0 1-1.812-3.295 4.95 4.95 0 0 1 1.057-3.608 4.763 4.763 0 0 1 3.243-1.765zM72.317 13.446l.081-.003c.243-.008.486.057.658.236.409.427.247 1.867.242 2.456.557.003 1.912-.17 2.329.201a.676.676 0 0 1 .213.52c.001.193-.049.378-.192.514-.39.369-1.798.224-2.35.221.005 1.184-.155 4.833.21 5.731.59 1.452 1.868.175 2.597.518a.709.709 0 0 1 .342.39c.082.23.009.436-.086.647a2.365 2.365 0 0 1-.049.053c-.44.459-1.268.569-1.876.578-.705.01-1.372-.11-1.893-.631-.376-.377-.611-.895-.725-1.41-.177-.795-.104-1.676-.104-2.487l.002-3.388c-.428 0-.856-.003-1.283-.01a1.368 1.368 0 0 1-.201-.145c-.169-.152-.246-.379-.252-.603a.647.647 0 0 1 .192-.502c.345-.32 1.106-.205 1.545-.198-.001-.616-.136-1.721.096-2.264.103-.241.272-.328.504-.424z"/>
      <path d="M38.386 13.215c-.737-.072-4.344-.047-5.595-.028-.23.003-.444.019-.631.033-.159.012-.3.022-.416.022 0 0-.498.117-.659.341-.106.147-.142.333-.167.509-.134.932-.212 1.882-.29 2.83-.041.499-.082.996-.131 1.49l-.475 4.79c-.013.128-.034.303-.059.501-.08.642-.192 1.53-.12 1.884a.67.67 0 0 0 .317.46c.171.101.365.158.559.191h.002c.402-.001 1.009.005 1.687.012 1.406.015 4.98.032 5.811-.003.166-.007.342-.021.498-.08a.785.785 0 0 0 .465-.443.84.84 0 0 0-.029-.656.66.66 0 0 0-.44-.387h-7.185c.12-1.058.227-2.117.322-3.177l.085-.862.008-.085.218.003c.732.011 4.293.037 4.747-.031.167-.025.322-.067.444-.189a.778.778 0 0 0 .21-.6.769.769 0 0 0-.237-.517.65.65 0 0 0-.339-.156c-.424-.062-3.591-.045-4.39-.035-.214.003-.392.005-.508.005l.364-4.297h3.877c.198 0 .404.007.613.013.506.016 1.031.033 1.501-.04a.736.736 0 0 0 .432-.205.787.787 0 0 0 .218-.585.77.77 0 0 0-.71-.709z"/>
    </symbol>
  </defs>
</svg>
