<svg xmlns="http://www.w3.org/2000/svg" width="159" height="60" fill="none">
  <path fill="#030A06" d="M26.291.249c-.313 0-.643 0-.953.037-3.598.3-6.905 1.829-9.26 4.613-2.562 3.03-3.181 6.223-3.151 10.081l-6.856-.01c-.307 0-.624-.01-.946-.018-.894-.025-1.823-.05-2.661.103a2.38 2.38 0 0 0-1.302.708c-.622.648-.637 1.466-.597 2.304.064 1.321.178 2.644.291 3.966.062.719.123 1.438.177 2.156L2.171 38.89l.553 7.1c.028.35.05.704.071 1.06.079 1.27.158 2.559.493 3.774a11.462 11.462 0 0 0 3.315 5.376 11.393 11.393 0 0 0 4.88 2.614c1.536.371 3.321.33 4.998.29.5-.012.989-.023 1.46-.024l9.228-.002 8.06.003c.44 0 .894.01 1.352.022 1.49.035 3.04.072 4.432-.252 1.957-.456 3.938-1.53 5.366-2.947 1.33-1.319 2.392-3.08 2.857-4.9.355-1.391.444-2.918.53-4.399.028-.477.056-.95.092-1.412l.756-9.737.944-11.956c.045-.59.104-1.187.163-1.785.129-1.296.258-2.603.255-3.884-.001-.788-.168-1.523-.733-2.108-.388-.403-1.024-.6-1.561-.688-.806-.131-1.69-.108-2.544-.085-.316.008-.628.017-.931.017-2.156-.004-4.313.003-6.469.023l-.092.001c.05-4.131-.87-7.677-3.84-10.698a13.238 13.238 0 0 0-9.47-4.045h-.045Zm13.066 23.565.116.007a.853.853 0 0 0 .013.032l.014.032.005.011c.02.049.025.057.024.135-.037 5.066-1.393 11.588-4.989 15.299-3.33 3.435-8.5 5.121-13.215 5.215 2.197-4.131 5.726-8.048 9.366-10.958.563-.45 1.152-.856 1.742-1.262.38-.262.76-.524 1.133-.798.362-.265.85-.626.9-1.11.048-.447-.19-.793-.47-1.112-.39-.227-.677-.322-1.124-.19-.635.186-1.274.655-1.851 1.079-.153.112-.302.221-.445.321a38.773 38.773 0 0 0-11.358 12.582c-.094-4.052.828-7.446 3.313-10.705 3.73-4.892 10.868-7.766 16.826-8.578ZM3.123 17.507h46.31c-.165 1.56-.272 3.133-.378 4.705-.06.875-.118 1.75-.187 2.622L47.62 40.46l-.467 5.758c-.02.25-.04.501-.058.753-.075.993-.15 1.996-.342 2.968-.197.998-.58 1.866-1.097 2.737-.2.303-.416.594-.649.873-1.342 1.604-3.546 2.799-5.639 2.957-1.14.086-2.313.065-3.474.043-.503-.009-1.004-.018-1.5-.018l-9.607-.003-7.646.003c-.368 0-.744.008-1.122.016-1.16.024-2.346.049-3.46-.143a8.258 8.258 0 0 1-3.955-1.865 8.635 8.635 0 0 1-2.774-4.366c-.313-1.13-.39-2.334-.467-3.516a69.03 69.03 0 0 0-.062-.885l-.454-5.859-1.725-22.406ZM40.385 21.1l-.034.004c-7.03.813-15.033 3.704-19.577 9.399-2.92 3.66-4.516 8.42-3.989 13.107a13.94 13.94 0 0 0 .685 2.992l-.137.347c-.577 1.45-1.918 4.82-1.451 5.817.134.288.41.48.707.576.123.038.247.06.374.075.394-.064.758-.146.995-.498.255-.379.515-1.29.738-2.068.106-.37.204-.712.289-.951.288-.82.616-1.628.944-2.434l.004-.009.115-.283c5.796.017 11.988-1.797 16.181-5.935 4.69-4.628 5.871-12.091 5.88-18.407.001-.498-.033-1.089-.397-1.47-.224-.234-.561-.304-.874-.297-.151.003-.302.019-.453.035ZM25.728 2.78a9.82 9.82 0 0 1 .674-.024c2.753.019 5.51 1.25 7.445 3.19 2.635 2.643 3.174 5.447 3.18 9.033l-10.089-.005-11.352.014c-.087-3.083.41-5.898 2.432-8.333 1.943-2.338 4.716-3.607 7.71-3.875Z"/>
  <path fill="#030A06" d="m39.473 23.82-.116-.006c-5.958.812-13.096 3.686-16.825 8.578-2.485 3.259-3.408 6.653-3.313 10.705a38.773 38.773 0 0 1 11.357-12.582c.143-.1.292-.209.445-.321.577-.424 1.216-.893 1.851-1.08.447-.13.734-.036 1.125.19.28.32.517.666.47 1.112-.051.485-.54.846-.901 1.111-.373.274-.753.536-1.133.798a30.57 30.57 0 0 0-1.742 1.262c-3.64 2.91-7.17 6.827-9.365 10.958 4.715-.094 9.885-1.78 13.214-5.215 3.596-3.71 4.952-10.233 4.989-15.299 0-.078-.003-.086-.024-.135a2.155 2.155 0 0 1-.032-.075Zm.878-2.717.034-.004c.15-.016.302-.032.453-.036.313-.006.65.064.874.298.364.381.398.972.398 1.47-.01 6.316-1.19 13.779-5.88 18.407-4.194 4.138-10.385 5.952-16.182 5.935l-.115.283-.004.01a54.833 54.833 0 0 0-.944 2.433c-.085.24-.182.58-.288.951-.223.779-.484 1.689-.739 2.068-.237.352-.6.433-.995.498a2.027 2.027 0 0 1-.374-.075c-.298-.095-.572-.288-.707-.576-.467-.997.874-4.367 1.451-5.817.053-.133.1-.25.137-.347a13.937 13.937 0 0 1-.685-2.992c-.527-4.687 1.069-9.448 3.99-13.108 4.543-5.694 12.546-8.585 19.576-9.398Z"/>
  <path fill="#030A06" d="m40.385 21.099-.034.004c-7.03.813-15.033 3.704-19.576 9.398-2.921 3.66-4.517 8.42-3.99 13.108.116 1.03.35 2.013.685 2.992a63.51 63.51 0 0 1-.137.347c-.577 1.45-1.918 4.82-1.451 5.817.135.288.41.48.707.576.123.038.247.06.374.075.394-.065.758-.146.995-.498.255-.38.515-1.289.738-2.067.107-.371.204-.713.289-.952.289-.82.617-1.628.944-2.434a.37.37 0 0 1 .004-.009l.115-.283c5.797.017 11.988-1.797 16.181-5.935 4.69-4.628 5.871-12.091 5.88-18.407.001-.498-.033-1.089-.397-1.47-.224-.234-.561-.305-.874-.298-.151.004-.302.02-.453.036Zm-1.028 2.715.116.007a2.226 2.226 0 0 0 .032.075c.021.049.025.057.024.135-.037 5.066-1.393 11.588-4.989 15.299-3.33 3.435-8.5 5.121-13.214 5.215 2.196-4.131 5.725-8.048 9.365-10.958a30.57 30.57 0 0 1 1.742-1.262c.38-.262.76-.524 1.133-.798.362-.265.85-.626.9-1.11.048-.447-.19-.794-.469-1.112-.391-.227-.678-.322-1.125-.19-.635.186-1.274.655-1.851 1.079a22.99 22.99 0 0 1-.445.32A38.773 38.773 0 0 0 19.22 43.098c-.095-4.052.828-7.446 3.313-10.705 3.729-4.892 10.867-7.766 16.825-8.578ZM130.9 38.266a9.022 9.022 0 0 0-9.333-8.698 9.02 9.02 0 0 0-8.699 9.334 9.022 9.022 0 1 0 18.032-.636Zm-9.02-5.991c1.453.059 2.63.408 3.737 1.389 1.32 1.167 2.056 2.855 2.152 4.602.097 1.75-.453 3.522-1.644 4.825-1.088 1.19-2.445 1.724-4.035 1.803-1.451-.015-2.648-.24-3.793-1.193-1.337-1.112-2.093-2.758-2.235-4.477-.147-1.786.321-3.633 1.506-5.003 1.177-1.359 2.566-1.827 4.312-1.946ZM105.826 37.52a9.017 9.017 0 1 0-17.904 2.146 9.017 9.017 0 0 0 17.904-2.146Zm-9.753-5.171c1.444-.118 2.753.034 3.972.873 1.37.942 2.231 2.396 2.516 4.022.323 1.845.019 3.818-1.091 5.356-.972 1.347-2.186 2.015-3.804 2.272-1.478.076-2.784-.014-4.028-.894a6.101 6.101 0 0 1-2.51-4.014c-.301-1.788.06-3.846 1.128-5.333.938-1.307 2.248-2.032 3.817-2.282ZM149.813 29.558a1.518 1.518 0 0 0-.133.01c-2.271.268-4.316 1.367-5.743 3.17-1.629 2.057-2.189 4.666-1.867 7.247a8.541 8.541 0 0 0 3.22 5.74c2.128 1.653 4.827 2.073 7.457 1.713 1.521-.208 3.808-.937 4.781-2.203.274-.355.411-.79.348-1.238-.044-.315-.183-.617-.442-.81-.298-.222-.696-.25-1.05-.18-.492.095-.933.4-1.351.688-.088.061-.176.121-.262.178-1.837.955-3.874 1.404-5.894.749a5.633 5.633 0 0 1-3.293-2.864c-.348-.694-.522-1.431-.676-2.188h8.667c.361 0 .748.013 1.146.026 1.028.033 2.128.068 3.035-.094a1.36 1.36 0 0 0 .693-.368c.426-.415.502-1.003.489-1.57-.048-2.171-1.068-4.313-2.648-5.782-1.824-1.697-4.024-2.335-6.477-2.224Zm.267 2.713a5.386 5.386 0 0 1 3.727.944c1.296.921 1.977 2.229 2.249 3.768-1.098.013-2.199.01-3.298.007-.55-.002-1.1-.003-1.649-.002l-6.096.008c.279-.938.603-1.79 1.202-2.576.967-1.266 2.305-1.944 3.865-2.15Z"/>
  <path fill="#030A06" d="M101.539 23.11c3.253-.076 6.524-.005 9.78-.01 1.854-.004 4.222-.154 6.022.031.29.03.521.113.741.305.313.274.522.686.533 1.105.009.378-.222.811-.495 1.065-.208.192-.456.27-.731.314-.749.121-1.576.05-2.337.05l-4.039-.008-.001 14.99c.005 1.264.165 4.02-.025 5.094-.06.337-.182.673-.415.932a1.308 1.308 0 0 1-.964.426c-.389.008-.767-.077-1.047-.36-.329-.33-.45-.815-.491-1.266-.075-.832-.006-1.713.003-2.549.015-1.237.003-2.474.003-3.711l.009-13.558c-1.343.006-5.993.22-6.945-.212a1.232 1.232 0 0 1-.693-.763c-.134-.384-.073-.795.122-1.148.227-.414.531-.591.97-.726ZM80.258 29.569c1.209-.069 2.39.009 3.563.323 1.239.332 3.134 1.063 3.774 2.238.176.324.268.711.144 1.07-.127.364-.474.643-.823.787-1.02.417-2.295-.987-3.254-1.348-1.559-.588-3.434-.555-4.95.153-1.394.65-2.395 1.883-2.914 3.314-.602 1.66-.653 3.826.111 5.445.71 1.5 2.013 2.549 3.56 3.095 1.77.626 3.615.293 5.269-.5.512-.278.978-.648 1.562-.769.302-.062.6-.03.857.15.317.219.573.653.615 1.036.04.36-.1.69-.324.967-.968 1.2-3.122 1.802-4.588 1.982-2.544.312-5.194-.198-7.23-1.822a8.884 8.884 0 0 1-3.37-6.127 9.212 9.212 0 0 1 1.966-6.711c1.532-1.885 3.624-3.025 6.032-3.283ZM134.6 25.016l.151-.006c.451-.014.905.106 1.223.439.761.795.459 3.472.45 4.568 1.036.006 3.555-.316 4.332.375.281.25.395.597.396.967.001.359-.092.702-.358.955-.726.688-3.345.417-4.372.41.01 2.202-.288 8.989.391 10.66 1.097 2.7 3.474.325 4.83.963.291.137.529.426.636.727.153.428.017.81-.159 1.203l-.091.099c-.819.853-2.358 1.058-3.489 1.074-1.311.02-2.551-.203-3.52-1.174-.7-.701-1.135-1.664-1.348-2.622-.33-1.479-.194-3.117-.193-4.626l.004-6.3c-.795-.002-1.591-.007-2.387-.02a2.6 2.6 0 0 1-.374-.27c-.315-.284-.458-.706-.469-1.122-.01-.348.097-.692.357-.933.643-.595 2.056-.382 2.873-.367-.002-1.147-.254-3.202.179-4.21.193-.448.507-.61.938-.79Z"/>
  <path fill="#030A06" fill-rule="evenodd" d="M71.493 24.588c-1.37-.135-8.079-.087-10.406-.053-.428.006-.825.035-1.174.061-.296.022-.558.041-.773.042 0 0-.927.217-1.227.634-.196.273-.263.62-.31.946-.249 1.733-.394 3.501-.54 5.264-.076.927-.152 1.853-.243 2.771l-.883 8.908c-.023.238-.064.563-.11.932-.15 1.193-.356 2.846-.222 3.504.074.364.267.666.59.856.317.187.678.294 1.04.355h.003c.748-.001 1.877.01 3.138.023 2.614.027 9.263.06 10.809-.006.308-.014.635-.04.925-.15.39-.147.711-.43.865-.823a1.56 1.56 0 0 0-.055-1.22c-.177-.385-.416-.59-.818-.72H58.739c.224-1.966.423-3.936.599-5.908l.157-1.603.016-.159.405.006c1.36.02 7.985.068 8.829-.058.31-.046.6-.124.826-.352.293-.296.415-.705.39-1.115-.02-.349-.174-.728-.439-.963a1.204 1.204 0 0 0-.63-.29c-.788-.114-6.677-.083-8.164-.064-.399.005-.73.01-.944.01l.677-7.992h7.211c.368 0 .75.013 1.14.025.94.03 1.916.062 2.791-.074.312-.048.578-.154.804-.381.277-.278.428-.698.407-1.087a1.425 1.425 0 0 0-1.321-1.32Z" clip-rule="evenodd"/>
</svg>
