<svg xmlns="http://www.w3.org/2000/svg" aria-hidden="true" style="position:absolute;width:0;height:0;overflow:hidden">
  <defs>
    <symbol id="icon-close" viewBox="0 0 32 32">
      <path d="m21.589 8.459-5.657 5.656-5.656-5.656-1.885 1.885L14.047 16l-5.656 5.656 1.885 1.885 5.656-5.656 5.657 5.656 1.885-1.885L17.818 16l5.656-5.656-1.885-1.885z"/>
    </symbol>
    <symbol id="icon-menu" viewBox="0 0 32 32">
      <path d="M5.333 8h21.333v2.667H5.333V8zm0 6.667h21.333v2.667H5.333v-2.667zm0 6.666h21.333V24H5.333v-2.667z"/>
    </symbol>
    <symbol id="icon-youtube" viewBox="0 0 32 32">
      <path d="M28.594 9.934a3.199 3.199 0 0 0-2.255-2.261c-2.004-.55-10.024-.559-10.024-.559s-8.018-.009-10.024.517A3.272 3.272 0 0 0 4.03 9.906c-.529 2.004-.534 6.162-.534 6.162s-.005 4.178.52 6.162a3.204 3.204 0 0 0 2.257 2.259c2.025.55 10.022.559 10.022.559s8.019.009 10.024-.516a3.221 3.221 0 0 0 2.262-2.257c.53-2.003.534-6.159.534-6.159s.026-4.179-.521-6.184zM13.75 19.92l.006-7.68 6.665 3.846-6.671 3.834z"/>
    </symbol>
    <symbol id="icon-linkedIn" viewBox="0 0 32 32">
      <path d="M25.675 4.554H6.955c-1.188 0-2.16.972-2.16 2.16v18.72c0 1.188.972 2.16 2.16 2.16h18.72c1.188 0 2.16-.972 2.16-2.16V6.714c0-1.188-.972-2.16-2.16-2.16zm-12.24 18.72h-2.88v-10.08h2.88v10.08zm-1.44-11.52a1.44 1.44 0 1 1 0-2.88 1.44 1.44 0 1 1 0 2.88zm11.52 11.52h-2.88v-5.76a1.44 1.44 0 1 0-2.88 0v5.76h-2.88v-10.08h2.88v1.786c.594-.814 1.503-1.786 2.52-1.786 1.791 0 3.24 1.611 3.24 3.6v6.48z"/>
    </symbol>
    <symbol id="icon-instagram" viewBox="0 0 32 32">
      <path d="M16.313 6.629c3.078 0 3.442.014 4.652.068 1.125.05 1.732.238 2.137.396.536.207.922.459 1.323.86.405.405.652.788.864 1.323.158.405.346 1.017.396 2.137.054 1.215.068 1.579.068 4.653s-.014 3.442-.068 4.653c-.05 1.125-.238 1.732-.396 2.137a3.558 3.558 0 0 1-.86 1.323 3.62 3.62 0 0 1-1.323.864c-.405.158-1.017.346-2.137.396-1.215.054-1.58.068-4.653.068s-3.442-.014-4.653-.068c-1.125-.05-1.732-.238-2.137-.396a3.558 3.558 0 0 1-1.323-.86 3.625 3.625 0 0 1-.864-1.322c-.158-.405-.346-1.017-.396-2.137-.054-1.215-.068-1.579-.068-4.653s.014-3.442.068-4.653c.05-1.125.238-1.732.396-2.137.207-.536.459-.922.86-1.323a3.62 3.62 0 0 1 1.323-.864c.405-.158 1.017-.346 2.137-.396 1.21-.054 1.575-.068 4.653-.068h.001zm0-2.075c-3.127 0-3.518.014-4.747.068-1.224.054-2.065.252-2.794.536A5.609 5.609 0 0 0 6.73 6.49a5.636 5.636 0 0 0-1.332 2.038c-.284.734-.482 1.57-.536 2.794-.054 1.233-.068 1.624-.068 4.751s.014 3.518.068 4.747c.054 1.224.252 2.065.536 2.794.297.76.688 1.404 1.332 2.042a5.637 5.637 0 0 0 2.038 1.328c.734.284 1.57.482 2.794.536 1.228.054 1.62.068 4.747.068s3.519-.014 4.747-.068c1.224-.054 2.065-.252 2.794-.536.756-.292 1.4-.688 2.038-1.328s1.035-1.282 1.328-2.038c.284-.734.482-1.57.536-2.794.054-1.228.068-1.62.068-4.747s-.014-3.518-.068-4.747c-.054-1.224-.252-2.065-.536-2.794a5.405 5.405 0 0 0-1.318-2.047 5.621 5.621 0 0 0-2.038-1.327c-.734-.284-1.57-.482-2.794-.536-1.232-.058-1.624-.072-4.751-.072l-.001.001z"/>
      <path d="M16.313 10.156a5.918 5.918 0 1 0 5.917 5.917 5.918 5.918 0 0 0-5.917-5.917zm0 9.755a3.838 3.838 0 1 1 0-7.676 3.838 3.838 0 0 1 0 7.676zM23.844 9.922a1.381 1.381 0 1 1-2.763-.001 1.381 1.381 0 0 1 2.763.002z"/>
    </symbol>
    <symbol id="icon-star" viewBox="0 0 32 32">
      <path d="M14.959 2.16c.524-1.244 2.308-1.244 2.832 0l3.091 7.343c.221.524.72.883 1.293.928l8.024.636c1.36.108 1.911 1.784.875 2.66l-6.114 5.174c-.437.37-.628.95-.494 1.502l1.868 7.736c.316 1.311-1.127 2.347-2.291 1.644l-6.87-4.146a1.55 1.55 0 0 0-1.599 0l-6.87 4.146c-1.164.702-2.607-.334-2.291-1.644l1.868-7.736a1.505 1.505 0 0 0-.494-1.502l-6.114-5.174c-1.036-.877-.485-2.553.875-2.66l8.024-.636a1.532 1.532 0 0 0 1.293-.928l3.092-7.343z"/>
    </symbol>
  </defs>
</svg>
